{
	"asset":{
		"generator":"Khronos glTF Blender I/O v4.1.63",
		"version":"2.0"
	},
	"scene":0,
	"scenes":[
		{
			"name":"Scene",
			"nodes":[
				0,
				1,
				2,
				3
			]
		}
	],
	"nodes":[
		{
			"mesh":0,
			"name":"\u7acb\u65b9\u4f53.019",
			"scale":[
				0.2964877486228943,
				0.562748908996582,
				0.2964877486228943
			],
			"translation":[
				0,
				0.5904740691184998,
				0
			]
		},
		{
			"name":"fire",
			"scale":[
				0.11493835598230362,
				0.11493835598230362,
				0.11493835598230362
			],
			"translation":[
				0,
				1.2293988466262817,
				0
			]
		},
		{
			"name":"fire.001",
			"scale":[
				0.04741913080215454,
				0.04741913080215454,
				0.04741913080215454
			],
			"translation":[
				0,
				1.3648724555969238,
				0
			]
		},
		{
			"mesh":1,
			"name":"\u7403.001",
			"scale":[
				0.032688532024621964,
				0,
				0.032688532024621964
			],
			"translation":[
				0,
				1.3171545267105103,
				0
			]
		}
	],
	"meshes":[
		{
			"name":"\u7acb\u65b9\u4f53.020",
			"primitives":[
				{
					"attributes":{
						"POSITION":0,
						"NORMAL":1,
						"TEXCOORD_0":2
					},
					"indices":3
				}
			]
		},
		{
			"name":"\u7403.002",
			"primitives":[
				{
					"attributes":{
						"POSITION":4,
						"NORMAL":5,
						"TEXCOORD_0":6
					},
					"indices":7
				}
			]
		}
	],
	"accessors":[
		{
			"bufferView":0,
			"componentType":5126,
			"count":645,
			"max":[
				1.1389693021774292,
				0.9999999403953552,
				1.1389693021774292
			],
			"min":[
				-1.149051308631897,
				-1,
				-1.1539043188095093
			],
			"type":"VEC3"
		},
		{
			"bufferView":1,
			"componentType":5126,
			"count":645,
			"type":"VEC3"
		},
		{
			"bufferView":2,
			"componentType":5126,
			"count":645,
			"type":"VEC2"
		},
		{
			"bufferView":3,
			"componentType":5123,
			"count":1536,
			"type":"SCALAR"
		},
		{
			"bufferView":4,
			"componentType":5126,
			"count":496,
			"max":[
				1,
				1,
				1
			],
			"min":[
				-0.9999999403953552,
				0,
				-0.9999999403953552
			],
			"type":"VEC3"
		},
		{
			"bufferView":5,
			"componentType":5126,
			"count":496,
			"type":"VEC3"
		},
		{
			"bufferView":6,
			"componentType":5126,
			"count":496,
			"type":"VEC2"
		},
		{
			"bufferView":7,
			"componentType":5123,
			"count":720,
			"type":"SCALAR"
		}
	],
	"bufferViews":[
		{
			"buffer":0,
			"byteLength":7740,
			"byteOffset":0,
			"target":34962
		},
		{
			"buffer":0,
			"byteLength":7740,
			"byteOffset":7740,
			"target":34962
		},
		{
			"buffer":0,
			"byteLength":5160,
			"byteOffset":15480,
			"target":34962
		},
		{
			"buffer":0,
			"byteLength":3072,
			"byteOffset":20640,
			"target":34963
		},
		{
			"buffer":0,
			"byteLength":5952,
			"byteOffset":23712,
			"target":34962
		},
		{
			"buffer":0,
			"byteLength":5952,
			"byteOffset":29664,
			"target":34962
		},
		{
			"buffer":0,
			"byteLength":3968,
			"byteOffset":35616,
			"target":34962
		},
		{
			"buffer":0,
			"byteLength":1440,
			"byteOffset":39584,
			"target":34963
		}
	],
	"buffers":[
		{
			"byteLength":41024,
			"uri":"rousoku.bin"
		}
	]
}
